<?xml version="1.0" encoding="UTF-8"?>
<svg width="212px" height="48px" viewBox="0 0 212 48" version="1.1" xmlns="http://www.w3.org/2000/svg" xmlns:xlink="http://www.w3.org/1999/xlink">
    <!-- Generator: Sketch 54.1 (76490) - https://sketchapp.com -->
    <title>new-logo-green</title>
    <desc>Created with Sketch.</desc>
    <g id="Apresentação" stroke="none" stroke-width="1" fill="none" fill-rule="evenodd">
        <g id="id-01" transform="translate(-696.000000, -824.000000)" fill="#1AD274" fill-rule="nonzero">
            <path d="M760.228824,857.6 C754.32,857.6 750.4,853.932867 750.4,848.4 C750.4,842.899301 754.32,839.2 760.228824,839.2 C766.051176,839.2 770,842.899301 770,848.4 C770,853.932867 766.051176,857.6 760.228824,857.6 Z M760.2,851.80979 C762.304118,851.80979 763.716471,850.458741 763.716471,848.4 C763.716471,846.341259 762.304118,844.99021 760.2,844.99021 C758.067059,844.99021 756.625882,846.341259 756.625882,848.4 C756.625882,850.458741 758.067059,851.80979 760.2,851.80979 Z M777.928058,841.570107 C779.366906,840.096797 781.467626,839.2 784,839.2 L783.708755,843.6918 C783.643787,844.69379 782.96193,845.549425 781.99972,845.836401 C779.362017,846.623087 778.043165,847.539067 778.043165,848.584342 L778.043165,857.2 L772,857.2 L772,839.520285 L777.841727,839.520285 L777.928058,841.570107 Z M799.605115,839.518182 L803.6,839.518182 L803.6,855.013636 C803.6,860.677273 799.179822,864.4 792.462315,864.4 C789.263501,864.4 786.44273,863.668182 784.465282,862.268182 L785.133586,859.619506 C785.457865,858.334301 786.762608,857.555316 788.047813,857.879595 C788.088899,857.889962 788.129703,857.901414 788.170182,857.913942 C789.87332,858.441011 791.245871,858.704545 792.287834,858.704545 C795.254006,858.704545 797.260534,857.4 797.464095,855.395455 C796.30089,856.668182 794.643323,857.4 792.520475,857.4 C787.838576,857.4 784,853.709091 784,848.204545 C784,842.795455 787.838576,839.2 792.520475,839.2 C794.759644,839.2 796.446291,839.995455 797.638576,841.395455 C797.687399,840.34486 798.553386,839.518182 799.605115,839.518182 Z M793.88724,851.672727 C796.039169,851.672727 797.493175,850.336364 797.493175,848.3 C797.493175,846.263636 796.039169,844.927273 793.88724,844.927273 C791.735312,844.927273 790.281306,846.295455 790.281306,848.268182 C790.281306,850.336364 791.735312,851.672727 793.88724,851.672727 Z M814.048193,839.2 C818.790361,839.2 822,841.966434 822,846.148252 L822,857.278322 L817.67576,857.278322 C816.813621,857.278322 816.106504,856.595229 816.076715,855.733606 L816.072289,855.605594 C814.944578,856.924476 813.296386,857.6 811.561446,857.6 C807.773494,857.6 805.2,855.283916 805.2,851.80979 C805.2,848.303497 808.293976,845.955245 812.949398,845.955245 C813.845783,845.955245 814.857831,846.051748 815.898795,846.212587 C815.66747,845.054545 814.481928,844.475524 812.457831,844.475524 C811.783093,844.475524 810.964848,844.623769 810.003095,844.920257 C809.320054,845.130826 808.580202,844.862816 808.190487,844.263645 L806.298795,841.355245 C808.409639,839.907692 810.751807,839.2 814.048193,839.2 Z M813.325301,852.839161 C814.771084,852.839161 815.812048,851.970629 815.927711,850.523077 C815.146988,850.394406 814.395181,850.33007 813.73012,850.33007 C812.371084,850.33007 811.474699,850.844755 811.474699,851.584615 C811.474699,852.356643 812.024096,852.839161 813.325301,852.839161 Z M836.21563,839.2 C840.382775,839.2 843.2,842.370819 843.2,847.111032 L843.2,854.8 C843.2,856.125483 842.125483,857.2 840.8,857.2 L837.037321,857.2 L837.037321,848.071886 C837.037321,846.182206 835.834131,844.965125 833.985327,844.965125 C832.165869,844.965125 830.962679,846.182206 830.962679,848.071886 L830.962679,857.2 L824.8,857.2 L824.8,839.520285 L830.757257,839.520285 L830.845295,841.313879 C832.253907,839.872598 834.249442,839.2 836.21563,839.2 Z M848.43,838.8 C846.33,838.8 844.8,837.287395 844.8,835.2 C844.8,833.112605 846.33,831.6 848.43,831.6 C850.5,831.6 852,833.112605 852,835.2 C852,837.287395 850.5,838.8 848.43,838.8 Z M845.6,857.2 L845.6,839.6 L851.6,839.6 L851.6,857.2 L845.6,857.2 Z M853.6,857.2 L853.6,853.548742 C853.6,853.149136 853.749533,852.763993 854.019183,852.46908 L860.800717,845.052174 L856.176344,845.052174 C854.850861,845.052174 853.776344,843.977657 853.776344,842.652174 L853.776344,839.6 L869.706093,839.6 L869.731154,843.243066 C869.733937,843.647578 869.583395,844.038129 869.309825,844.336118 L862.534767,851.715942 L870,851.715942 L870,854.8 C870,856.125483 868.925483,857.2 867.6,857.2 L853.6,857.2 Z M871.2,856.4 L871.2,853.548742 C871.2,853.149136 871.349533,852.763993 871.619183,852.46908 L878.400717,845.052174 L873.776344,845.052174 C872.450861,845.052174 871.376344,843.977657 871.376344,842.652174 L871.376344,839.6 L886.511578,839.6 C886.951258,839.6 887.308534,839.954827 887.311559,840.394497 L887.331154,843.243066 C887.333937,843.647578 887.183395,844.038129 886.909825,844.336118 L880.134767,851.715942 L887.6,851.715942 L887.6,854.8 C887.6,856.125483 886.525483,857.2 885.2,857.2 L872,857.2 C871.558172,857.2 871.2,856.841828 871.2,856.4 Z M907.2,848.11049 C907.2,848.396561 907.188249,848.750682 907.164746,849.172855 C907.117546,850.020643 906.416321,850.683916 905.56722,850.683916 L895.356986,850.683916 C895.732496,851.713287 896.570173,852.324476 898.216641,852.324476 C899.120418,852.324476 899.956482,852.112487 900.724834,851.68851 L900.724831,851.688506 C901.20135,851.425563 901.778852,851.422879 902.257794,851.681382 L906.13124,853.772028 C904.658085,855.959441 901.79843,857.6 898.303297,857.6 C892.612873,857.6 888.8,854.061538 888.8,848.68951 C888.8,843.027972 892.468446,839.2 897.985557,839.2 C903.531554,839.2 907.2,842.770629 907.2,848.11049 Z M897.985557,844.475524 C896.570173,844.475524 895.761381,845.118881 895.356986,846.373427 L900.72967,846.373427 C900.325275,845.118881 899.458713,844.475524 897.985557,844.475524 Z M696,848.001606 C696,834.744499 706.74435,824 720.001629,824 C733.253577,824 744,834.744499 744,848.001606 C744,861.255501 733.253577,872 720.001629,872 C706.74435,872 696,861.255501 696,848.001606 Z M718.487435,861.761248 L718.72456,864 L721.549382,863.705381 C723.081314,863.545606 724.192663,862.183752 724.031651,860.663595 C732.500543,858.966287 733.422501,851.359764 730.485851,847.895316 C727.731092,844.637637 722.709035,844.872662 718.522989,844.208122 C715.314732,843.698808 715.630092,840.133717 720.928654,840.789707 C723.559871,841.110725 724.54364,841.842364 726.320786,842.476644 C726.899457,841.631797 729.187337,838.008944 729.614385,837.271948 C727.074103,835.662844 724.632416,834.844506 721.320498,834.726975 L721.31944,834.730712 L720.704048,834.730712 C720.465819,834.730712 720.155263,834.755351 719.772379,834.804631 L721.218455,834.231394 C721.169576,833.786918 721.095308,833.04312 720.995651,832 L717.976187,832.314919 C716.551753,832.463483 715.518389,833.729774 715.668103,835.14326 C713.937801,835.685655 713.129201,835.979249 711.769874,836.913289 C707.717508,839.687862 707.024034,844.333135 709.248216,847.465808 C712.577486,852.164459 721.166803,850.603675 723.956107,852.038626 C724.542854,852.312309 724.689714,852.948404 724.484611,853.590426 C723.929149,855.679766 715.274984,855.237505 712.612891,853.316518 C712.40991,853.170404 712.091732,852.972563 711.959197,852.821279 C710.910241,854.82553 709.660746,856.809341 708.700506,858.573624 C711.367045,859.85264 713.394883,861.063624 718.318907,861.288041 C718.533061,861.291386 718.759252,861.293058 718.997481,861.293058 C719.235709,861.293058 719.546266,861.268418 719.92915,861.219139 L718.487435,861.761248 Z" id="new-logo-green"></path>
        </g>
    </g>
</svg>